<!-- discord.svg -->
<svg
    xmlns="http://www.w3.org/2000/svg"
    viewBox="0 0 245 240"
    fill="currentColor"
    aria-labelledby="discordTitle"
    role="img"
>
    <title id="discordTitle">Discord</title>
    <path d="M104.4 104.5c-5.7 0-10.3 5.3-10.3 11.8s4.6 11.8 10.3 11.8c5.7 0 10.3-5.3 10.3-11.8s-4.6-11.8-10.3-11.8zm36.4 0c-5.7 0-10.3 5.3-10.3 11.8s4.6 11.8 10.3 11.8c5.7 0 10.3-5.3 10.3-11.8s-4.6-11.8-10.3-11.8zm60.2-27.4s-2.4-7.8-6.3-10.5c5.6-5.4 9.3-12.2 9.3-20.1 0-17.3-14.3-31.3-31.9-31.3H31.9C14.3 35.7 0 49.7 0 67c0 7.9 3.7 14.7 9.3 20.1-3.9 2.7-6.3 10.5-6.3 10.5-7.7 19.2-7.9 34.5-.3 49.3 7.2 18.1 20.8 26.3 34.7 29.3 3.4.7 6.8 1.1 10.3 1.1h.5c3.5 0 6.9-.4 10.3-1.1 13.9-3 27.5-11.2 34.7-29.3 7.6-14.8 7.4-30.1-.3-49.3zm-41.8 56.6c-9.3 0-16.9-7.6-16.9-16.9s7.6-16.9 16.9-16.9 16.9 7.6 16.9 16.9-7.6 16.9-16.9 16.9zm-68.8 0c-9.3 0-16.9-7.6-16.9-16.9s7.6-16.9 16.9-16.9 16.9 7.6 16.9 16.9-7.6 16.9-16.9 16.9z"/>
</svg>

