<svg xmlns="http://www.w3.org/2000/svg" viewBox="0 0 24 24" width="50" height="50" fill="currentColor">
  <path d="M20.317 4.369a19.791 19.791 0 00-4.885-1.455.074.074 0 00-.079.037c-.211.38-.444.875-.608 1.27a18.07 18.07 0 00-5.487 0 12.262 12.262 0 00-.617-1.27.076.076 0 00-.079-.037A19.567 19.567 0 003.68 4.37a.07.07 0 00-.032.027C.533 9.086-.32 13.663.099 18.17a.079.079 0 00.031.057 19.963 19.963 0 005.99 3.058.074.074 0 00.079-.028 14.327 14.327 0 001.217-1.958.073.073 0 00-.041-.104 13.22 13.22 0 01-1.872-.914.073.073 0 01-.007-.124 9.592 9.592 0 001.13-.878.073.073 0 01.076-.015c3.914 1.792 8.194 1.792 12.062 0a.073.073 0 01.077.014c.36.333.736.64 1.13.878a.073.073 0 01-.006.124 12.298 12.298 0 01-1.873.914.073.073 0 00-.04.105c.375.65.77 1.342 1.217 1.957a.073.073 0 00.079.029 19.945 19.945 0 005.993-3.058.079.079 0 00.031-.057c.5-5.177-.838-9.708-3.549-13.774a.062.062 0 00-.032-.027zM8.02 15.662c-1.18 0-2.153-1.085-2.153-2.419 0-1.333.952-2.418 2.153-2.418 1.21 0 2.182 1.095 2.153 2.418 0 1.334-.952 2.419-2.153 2.419zm7.965 0c-1.18 0-2.153-1.085-2.153-2.419 0-1.333.952-2.418 2.153-2.418 1.21 0 2.182 1.095 2.153 2.418 0 1.334-.943 2.419-2.153 2.419z"/>
</svg>

