<!-- facebook.svg -->
<svg
    xmlns="http://www.w3.org/2000/svg"
    viewBox="0 0 24 24"
    fill="currentColor"
    aria-labelledby="facebookTitle"
    role="img"
>
    <title id="facebookTitle">Facebook</title>
    <path d="M22.675 0h-21.35C.595 0 0 .592 0 1.325v21.351C0 23.408.595 24 1.325 24h11.495v-9.294H9.691V11.08h3.129V8.413c0-3.1 1.893-4.788 4.659-4.788 1.325 0 2.464.099 2.795.143v3.24l-1.918.001c-1.504 0-1.795.715-1.795 1.763v2.31h3.587l-.467 3.627h-3.12V24h6.116C23.405 24 24 23.408 24 22.675V1.325C24 .592 23.405 0 22.675 0z"/>
</svg>

