<!-- twitter.svg -->
<svg
    xmlns="http://www.w3.org/2000/svg"
    viewBox="0 0 24 24"
    fill="currentColor"
    aria-labelledby="twitterTitle"
    role="img"
>
    <title id="twitterTitle">Twitter</title>
    <path d="M24 4.557a9.93 9.93 0 0 1-2.828.775 4.932 4.932 0 0 0 2.165-2.724c-.951.555-2.005.959-3.127 1.184A4.916 4.916 0 0 0 16.616 3c-2.737 0-4.952 2.215-4.952 4.952 0 .388.044.765.127 1.124C7.691 8.903 4.066 6.924 1.64 3.905a4.822 4.822 0 0 0-.666 2.475c0 1.708.87 3.213 2.188 4.096a4.904 4.904 0 0 1-2.245-.616v.062c0 2.385 1.693 4.374 3.946 4.827a4.935 4.935 0 0 1-2.232.084c.63 1.956 2.445 3.377 4.6 3.417A9.867 9.867 0 0 1 0 19.54a13.94 13.94 0 0 0 7.548 2.212c9.058 0 14.01-7.513 14.01-14.01 0-.213-.005-.425-.014-.636A10.025 10.025 0 0 0 24 4.557z"/>
</svg>

