<svg xmlns="http://www.w3.org/2000/svg" viewBox="0 0 24 24" width="50" height="50" fill="currentColor">
  <path d="M24 4.557a9.834 9.834 0 01-2.828.775 4.932 4.932 0 002.165-2.724 9.865 9.865 0 01-3.127 1.196 4.916 4.916 0 00-8.375 4.482A13.94 13.94 0 011.671 3.149a4.916 4.916 0 001.523 6.573A4.897 4.897 0 01.964 9.1v.062a4.918 4.918 0 003.946 4.817 4.903 4.903 0 01-2.212.084 4.918 4.918 0 004.59 3.415A9.867 9.867 0 010 21.54a13.933 13.933 0 007.548 2.213c9.058 0 14.01-7.504 14.01-14.01 0-.213-.005-.425-.014-.636A10.025 10.025 0 0024 4.557z"/>
</svg>

